<?xml version="1.0" encoding="utf-8"?><svg viewBox="0 0 15 16" xmlns="http://www.w3.org/2000/svg" xmlns:xlink="http://www.w3.org/1999/xlink"><style>:root>svg{display:none}:root>svg:target{display:block}</style><svg fill="none" viewBox="0 0 15 16" id="call" xmlns="http://www.w3.org/2000/svg"><g clip-path="url(#aclip0_6_183)" fill="#999"><path d="M14.606 12.137l-3.036-2.02a.888.888 0 00-1.186.192l-.885 1.135a.379.379 0 01-.484.101l-.169-.092c-.557-.303-1.251-.68-2.65-2.076C4.8 7.982 4.42 7.289 4.117 6.734l-.093-.168a.377.377 0 01.1-.485l1.137-.882a.883.883 0 00.193-1.184L3.428.986A.883.883 0 002.24.72l-1.27.76a1.787 1.787 0 00-.816 1.058c-.458 1.661-.114 4.53 4.121 8.754 3.369 3.36 5.877 4.264 7.6 4.264.397.002.792-.05 1.175-.153a1.788 1.788 0 001.06-.814l.764-1.266a.878.878 0 00-.268-1.186zm-.163.93l-.762 1.267a1.292 1.292 0 01-.762.589c-1.538.421-4.224.072-8.29-3.983C.563 6.884.214 4.204.636 2.67c.091-.321.303-.594.591-.762l1.27-.76a.383.383 0 01.516.116l1.1 1.647.923 1.381c.11.167.074.39-.084.514l-1.136.882a.871.871 0 00-.232 1.12l.09.164c.32.584.717 1.311 2.167 2.758 1.45 1.446 2.178 1.842 2.764 2.16l.164.091a.876.876 0 001.123-.231l.884-1.134a.386.386 0 01.515-.083l3.036 2.02a.38.38 0 01.116.514zM8.5 3.089a4.249 4.249 0 014.25 4.239.25.25 0 00.5 0A4.749 4.749 0 008.5 2.59a.25.25 0 100 .499z"/><path d="M8.5 4.585a2.75 2.75 0 012.75 2.743.25.25 0 00.5 0A3.25 3.25 0 008.5 4.086a.25.25 0 100 .499z"/><path d="M8.5 6.08c.69.002 1.249.56 1.25 1.248a.25.25 0 00.5 0A1.75 1.75 0 008.5 5.582a.25.25 0 100 .499z"/></g><defs><clipPath id="aclip0_6_183"><path fill="#fff" transform="translate(0 .593)" d="M0 0h15v14.964H0z"/></clipPath></defs></svg><svg fill="none" viewBox="0 0 15 16" id="envelope" xmlns="http://www.w3.org/2000/svg"><g clip-path="url(#bclip0_6_144)" fill="#999"><path d="M13.169 2.488H1.834C.822 2.488 0 3.308 0 4.318v7.728c0 1.009.822 1.83 1.834 1.83h11.332c1.011 0 1.834-.821 1.834-1.83V4.32a1.832 1.832 0 00-1.831-1.833zm.996 9.558a.996.996 0 01-.996.994H1.834a.996.996 0 01-.996-.994V4.32c0-.548.447-.994.996-.994h11.332c.55 0 .996.446.996.994v7.725h.003z"/><path d="M9.46 8.086l3.669-3.282a.42.42 0 00-.562-.622l-5.06 4.53-.986-.88c-.003-.003-.006-.006-.006-.01a.62.62 0 00-.069-.058L2.43 4.179a.42.42 0 10-.558.625l3.712 3.31-3.697 3.452a.419.419 0 00.574.613l3.753-3.502 1.018.907a.42.42 0 00.558-.003l1.046-.935 3.73 3.536a.419.419 0 10.577-.607l-3.683-3.49z"/></g><defs><clipPath id="bclip0_6_144"><path fill="#fff" transform="translate(0 .7)" d="M0 0h15v14.964H0z"/></clipPath></defs></svg><svg fill="none" viewBox="0 0 15 16" id="placeholder" xmlns="http://www.w3.org/2000/svg"><g clip-path="url(#cclip0_6_206)" fill="#999"><path d="M7.49.49c-3.032 0-5.498 2.46-5.498 5.483 0 1.39.878 3.352 2.608 5.834a39.151 39.151 0 002.562 3.277l.328.369.328-.369a39.208 39.208 0 002.561-3.277c1.73-2.482 2.608-4.445 2.608-5.834C12.987 2.95 10.521.49 7.49.49zM9.664 11.3a39.747 39.747 0 01-2.174 2.822 39.708 39.708 0 01-2.17-2.815c-1.603-2.3-2.45-4.144-2.45-5.334 0-2.541 2.072-4.609 4.62-4.609 2.547 0 4.62 2.068 4.62 4.61 0 1.188-.846 3.03-2.446 5.326z"/><path d="M7.489 2.516a3.244 3.244 0 00-3.245 3.237 3.244 3.244 0 006.49 0 3.244 3.244 0 00-3.245-3.237zm0 5.599A2.367 2.367 0 015.12 5.753a2.367 2.367 0 014.735 0A2.367 2.367 0 017.49 8.115z"/></g><defs><clipPath id="cclip0_6_206"><path fill="#fff" transform="translate(0 .49)" d="M0 0h15v14.964H0z"/></clipPath></defs></svg><svg fill="none" viewBox="0 0 10 11" id="right-arrow" xmlns="http://www.w3.org/2000/svg"><g clip-path="url(#dclip0_6_231)"><path d="M3.132 10.075a.31.31 0 01-.224.093.317.317 0 01-.225-.541l3.953-3.944-3.953-3.944a.317.317 0 11.45-.449L7.31 5.458a.317.317 0 010 .449l-4.179 4.168z" fill="#999"/></g><defs><clipPath id="dclip0_6_231"><path fill="#fff" transform="translate(0 .695)" d="M0 0h10v9.976H0z"/></clipPath></defs></svg></svg>