<?xml version="1.0" encoding="utf-8"?><svg viewBox="0 0 44 45" xmlns="http://www.w3.org/2000/svg" xmlns:xlink="http://www.w3.org/1999/xlink"><style>:root>svg{display:none}:root>svg:target{display:block}</style><svg fill="none" viewBox="0 0 21 20" id="arrow" xmlns="http://www.w3.org/2000/svg"><path d="M17.677.366L0 18.044l1.921 1.921L19.6 2.288 17.677.366z" fill="#fff"/><path d="M20.024 9.457h-2.717v-6.74h-6.74V0h9.457v9.457z" fill="#fff"/></svg><svg fill="none" viewBox="0 0 23 22" id="home" xmlns="http://www.w3.org/2000/svg"><path d="M22.613 9.773L12.294.312a1.17 1.17 0 00-1.59 0L.386 9.772c-.364.335-.481.846-.306 1.307.175.461.611.76 1.1.76h1.65v9.478a.68.68 0 00.678.683h5.655a.68.68 0 00.679-.683v-5.754h3.324v5.754a.68.68 0 00.678.683h5.651a.68.68 0 00.679-.683v-9.479h1.648c.49 0 .921-.298 1.1-.759.172-.461.055-.972-.31-1.306z" fill="#F38120"/></svg><svg fill="none" viewBox="0 0 44 45" id="telegram" xmlns="http://www.w3.org/2000/svg"><rect y=".577" width="43.846" height="43.846" rx="21.923" fill="#05A0EB"/><path d="M20.035 24.73l-.291 3.917c.415 0 .596-.17.812-.378l1.945-1.785 4.032 2.834c.74.394 1.26.187 1.46-.654l2.648-11.907c.236-1.046-.394-1.457-1.114-1.197L13.97 21.278c-1.062.395-1.045.964-.182 1.22l3.977 1.187 9.239-5.55c.435-.277.829-.125.503.154l-7.47 6.442z" fill="#fff"/></svg><svg fill="none" viewBox="0 0 44 45" id="viber" xmlns="http://www.w3.org/2000/svg"><rect y=".577" width="43.846" height="43.846" rx="21.923" fill="#12C868"/><path d="M24.136 13.864h-4.43c-4.289 0-7.748 3.113-7.748 6.977v2.99c0 2.7 1.72 5.153 4.43 6.3v3.34c0 .169.172.323.39.323a.42.42 0 00.257-.09l3.202-2.9h3.899c4.293 0 7.752-3.113 7.752-6.977v-2.99c0-3.86-3.459-6.973-7.752-6.973zm2.913 13.076l-1.108.997c-1.194 1.042-4.258-.155-6.969-2.635-2.71-2.48-3.914-5.289-2.771-6.331l1.107-.997c.445-.369 1.143-.35 1.583.032l1.604 1.502c.41.4.41.997-.036 1.397-.121.11-.258.168-.41.232-.56.155-.85.642-.713 1.152.274 1.106 1.821 2.485 3 2.758.545.123 1.107-.155 1.294-.628.187-.492.799-.765 1.38-.596.172.045.309.154.445.245l1.604 1.502c.4.36.4.974-.01 1.37zm-4.137-8.338c-.122 0-.223 0-.324.032-.187.032-.39-.11-.41-.305-.02-.196.122-.35.324-.369.137-.031.273-.031.41-.031 2.043 0 3.681 1.502 3.712 3.313 0 .123 0 .246-.036.369a.36.36 0 01-.41.29c-.222-.031-.358-.168-.323-.368 0-.109.035-.2.035-.291-.015-1.443-1.345-2.64-2.978-2.64zm2.215 2.667a.36.36 0 01-.41.292c-.172-.032-.323-.155-.323-.292 0-.719-.663-1.32-1.467-1.32a.371.371 0 01-.41-.305c-.035-.168.137-.35.324-.368h.05c1.28 0 2.236.887 2.236 1.993zm2.827 1.056c-.036.169-.223.291-.41.278-.187-.014-.323-.2-.308-.369v-.045c.086-.292.121-.597.121-.92 0-2.193-1.992-3.987-4.43-3.987h-.324c-.187.032-.39-.123-.39-.305-.035-.168.137-.35.325-.35.136 0 .273-.032.389-.032 2.847 0 5.178 2.085 5.178 4.66-.015.351-.065.733-.151 1.07z" fill="#fff"/></svg><svg fill="none" viewBox="0 0 44 45" id="watsup" xmlns="http://www.w3.org/2000/svg"><rect y=".577" width="43.846" height="43.846" rx="21.923" fill="#976FCC"/><path d="M21.923 12.854c-5.325 0-9.646 4.321-9.646 9.647a9.62 9.62 0 001.857 5.695l-1.228 3.637 3.832-1.196a9.624 9.624 0 005.185 1.51c5.326 0 9.647-4.321 9.647-9.646 0-5.326-4.321-9.647-9.647-9.647zm4.417 14.82c-1.751.702-3.839.023-6.123-1.711-2.284-1.734-3.787-4.175-3.888-5.988-.101-1.812 1.374-2.727 2.177-2.721.802.005 1.683 2.57 1.695 2.963.01.398-.982 1.105-1.022 1.442-.039.337 1.353 1.998 1.942 2.447.584.443 1.79 1.296 2.413 1.217.617-.084 1.027-1.324 1.42-1.403.392-.078 2.536.988 2.75 1.263.212.28.19 1.874-1.364 2.491z" fill="#fff"/></svg></svg>